<?xml version="1.0" encoding="iso-8859-1"?>
<!-- Generator: Adobe Illustrator 18.1.1, SVG Export Plug-In . SVG Version: 6.00 Build 0)  -->
<svg version="1.1" id="Capa_1" xmlns="http://www.w3.org/2000/svg" xmlns:xlink="http://www.w3.org/1999/xlink" x="0px" y="0px"
	 viewBox="0 0 275.998 275.998" style="enable-background:new 0 0 275.998 275.998;" xml:space="preserve">
<g>
	<path id="_229759408" style="fill:#030104;" d="M103.155,62.071v156.641l10.304-0.045l-0.012-9.469l94.689-165.376L139.528,1.129
		L103.155,62.071L103.155,62.071z M134.255,71.784c9.102,0,16.479,7.377,16.479,16.479s-7.378,16.479-16.479,16.479
		c-9.102,0-16.479-7.377-16.479-16.479S125.153,71.784,134.255,71.784z M160.48,30.449c9.102,0,16.479,7.376,16.479,16.478
		s-7.377,16.479-16.479,16.479s-16.479-7.377-16.479-16.479S151.379,30.449,160.48,30.449z"/>
	<path id="_237278608_1_" style="fill:#030104;" d="M175.657,112.719l-27.884,49.247c8.267,0.891,14.709,7.879,14.709,16.379
		c0,9.102-7.377,16.479-16.479,16.479c-5.363,0-10.136-2.582-13.141-6.542L103.176,240.7l9.413,5.764l163.409-97.882l-38.654-70.967
		L175.657,112.719L175.657,112.719z M187.907,135.618c9.102,0,16.479,7.377,16.479,16.479s-7.378,16.479-16.479,16.479
		s-16.479-7.377-16.479-16.479S178.806,135.618,187.907,135.618z M230.801,109.481c9.102,0,16.479,7.377,16.479,16.479
		s-7.377,16.478-16.479,16.478s-16.479-7.376-16.479-16.478S221.699,109.481,230.801,109.481L230.801,109.481z"/>
	<path style="fill:#030104;" d="M264.249,171.591l-17.369,0.078l-61.497,39.088c0.646-0.078,1.303-0.122,1.969-0.122
		c9.102,0,16.479,7.377,16.479,16.479c0,9.103-7.377,16.478-16.479,16.478c-9.101,0-16.479-7.376-16.479-16.478
		c0-3.205,0.902-6.187,2.492-8.724l-59.861,38.043l-10.314-0.102l-0.021,9.437l161.102,0.011h0.001L264.249,171.591z
		 M235.23,243.781c-9.102,0-16.479-7.378-16.479-16.479s7.377-16.479,16.479-16.479c9.102,0,16.479,7.377,16.479,16.479
		S244.332,243.781,235.23,243.781z"/>
	<path id="_237279472_1_" style="fill:#030104;" d="M10.081,1.129h74.048c5.553,0,10.081,4.528,10.081,10.081v245.979
		c0,5.552-4.528,10.08-10.081,10.08H51.806v-72.455c0-2.904-2.359-5.264-5.274-5.264l0,0c-2.904,0-5.252,2.359-5.252,5.264v72.455
		H10.081C4.529,267.27,0,262.741,0,257.19V11.21C0,5.658,4.529,1.129,10.081,1.129z"/>
	<path id="_231596512" style="fill:#030104;" d="M46.538,191.408h0.005c1.918,0,3.484,1.566,3.484,3.488v79.973h-6.973v-79.973
		C43.054,192.975,44.62,191.408,46.538,191.408L46.538,191.408z"/>
</g>
<g>
</g>
<g>
</g>
<g>
</g>
<g>
</g>
<g>
</g>
<g>
</g>
<g>
</g>
<g>
</g>
<g>
</g>
<g>
</g>
<g>
</g>
<g>
</g>
<g>
</g>
<g>
</g>
<g>
</g>
</svg>
